Coordinates
version=1
nRows=14
nColumns=33
inDegrees=yes

Units are S.I. units (second, meters, Newtons, ...)
Angles are in degrees.

endheader
time	ground_thorax_rot_x	ground_thorax_rot_y	ground_thorax_rot_z	ground_thorax_tx	ground_thorax_ty	ground_thorax_tz	clav_prot_r	clav_elev_r	scapula_abduction_r	scapula_elevation_r	scapula_upward_rot_r	scapula_winging_r	shoulder_elv_r	plane_of_elev_r	axial_rot_r	elbow_flexion_r	pro_sup_r	wrist_flex_r	wrist_dev_r	clav_prot_l	clav_elev_l	scapula_abduction_l	scapula_elevation_l	scapula_upward_rot_l	scapula_winging_l	shoulder_elv_l	plane_of_elev_l	axial_rot_l	elbow_flexion_l	pro_sup_l	wrist_flex_l	wrist_dev_l
      3.32000000	      0.36451852	      4.90239695	     11.80103115	     -0.10754200	      1.02678653	      0.02404028	      6.64372311	      5.41779403	     27.71253028	      0.73854045	     27.51135157	    -13.20101297	     26.17983919	    -58.77348465	     55.69256582	     57.77247706	    -28.51097717	     19.22489950	    -24.99999983	     19.18576310	    -11.29561309	    -27.98708734	     -9.72722904	    -32.86197233	      6.30509129	     63.03429879	    -16.76900597	     -0.39649458	     49.44409063	      4.75145035	     26.11990004	     -5.06547171
      3.33000000	      0.36498534	      4.70770763	     11.72133008	     -0.10700254	      1.02610381	      0.02326230	      6.90958713	      5.25662759	     28.78100908	      0.41549094	     28.20584518	    -13.54196883	     25.15183209	    -56.77658476	     58.16130640	     54.13915739	    -33.79846170	     21.54754467	    -24.99999983	     19.41702071	    -11.56671805	    -28.29034325	     -9.21001154	    -32.29214422	      6.47444695	     62.53414280	    -15.47628067	      0.00570085	     46.79338791	      5.02708666	     26.70546442	     -4.85676344
      3.34000000	      0.06458276	      4.43848756	     11.69615861	     -0.10682272	      1.02602476	      0.02229029	      7.33628540	      5.09175021	     30.38744535	      0.01286183	     29.21401539	    -14.05866389	     21.79162408	    -54.02992635	     62.40251577	     47.75152425	    -46.48187177	     31.38086246	    -24.99999983	     19.71927293	    -12.12769216	    -28.69729499	     -8.51942979	    -31.90188418	      6.62200201	     62.66379516	    -14.92463913	      0.33867232	     44.66836607	      5.88832752	     27.47263709	     -5.21845839
      3.35000000	     -2.51108385	      3.27542622	     11.47388016	     -0.10772984	      1.02456309	      0.00891858	     13.78400541	    -13.84518188	     30.08020907	    -10.70266987	     11.79527383	     -7.05709500	    -11.55878009	    -65.30126770	    122.81915084	    -63.59832666	   -158.67843645	     -0.28232340	      6.48350344	     19.51180732	     -7.58860607	    -28.54543590	    -11.04098036	    -28.71979567	      7.56516856	     58.55839060	    -11.44761746	      1.41262312	     41.79310712	      6.92832844	     26.79459585	     -3.33701868
      3.36000000	     -2.78807014	      3.42683028	     11.20555464	     -0.10659167	      1.02495483	      0.00876970	     13.78710202	    -14.55459079	     30.56022056	    -11.61212394	     12.63136334	     -6.77985162	    -10.65492313	    -64.37608184	    122.79671858	    -60.99463873	   -158.36015028	     -0.89830147	      6.58357468	     19.81298130	     -8.31042773	    -29.00345528	    -10.15772203	    -28.24183769	      7.77509759	     58.91779593	    -10.72015160	      1.19438853	     39.30857562	      7.25373718	     26.78409193	     -2.94432367
      3.37000000	     -2.98126216	      3.61177854	     10.94712284	     -0.10525443	      1.02479895	      0.00844151	     13.38396581	    -14.76430871	     30.66932193	    -12.22254138	     13.88075094	     -6.58333936	     -9.39701959	    -63.47020373	    123.83266573	    -58.07808039	   -157.38113190	     -1.41098299	      7.14024431	     20.28356390	     -8.52416207	    -29.77906051	     -9.74610400	    -27.82776528	      8.21832490	     58.54841557	     -9.18452116	      1.81316731	     36.45063701	      7.61870143	     26.78773380	     -2.96649317
      3.38000000	     -3.22525852	      3.71820807	     10.72679477	     -0.10436697	      1.02499183	      0.00835419	     13.63414476	    -15.33605415	     31.37978190	    -12.89515761	     14.41752752	     -6.48880043	     -8.26729378	    -62.36443605	    123.75042189	    -55.41817934	   -157.00621151	     -1.86892411	      7.34126666	     20.66243636	     -9.09031249	    -30.37368051	     -9.01076092	    -27.36786993	      8.50631686	     58.67736598	     -8.36684904	      1.70709010	     33.90935762	      8.06294206	     26.69153579	     -2.68686359
      3.39000000	     -3.31088786	      3.78829649	     10.66907303	     -0.10354080	      1.02434153	      0.00799039	     13.58897612	    -15.15805134	     31.87925319	    -13.02384973	     15.32122095	     -6.73568454	     -6.67940298	    -61.21376921	    125.02920765	    -52.36251325	   -155.51458602	     -1.88137802	      7.99096924	     21.35375660	     -9.03863444	    -31.54094167	     -8.91648534	    -27.15648251	      9.19703481	     57.83211215	     -6.55897041	      2.93614760	     31.01531159	      8.95534581	     26.17728300	     -3.18575706
      3.40000000	     -3.35384647	      4.06241493	     10.73679332	     -0.10343892	      1.02392642	      0.00796486	     13.88314909	    -15.08546163	     32.41037768	    -12.97806135	     15.41889611	     -7.01460770	     -4.83694883	    -59.81720785	    125.71118245	    -49.65531840	   -153.20654275	     -1.79483374	      8.52781489	     22.39829027	     -9.49183361	    -33.25422667	     -8.52164437	    -27.28581404	     10.09697193	     57.52119668	     -5.13376956	      3.55228543	     28.41729576	     10.79701242	     25.55207021	     -4.15670024
      3.41000000	     -3.54987162	      4.09410933	     10.44991085	     -0.10224450	      1.02452449	      0.00785642	     14.03860889	    -15.65771284	     33.03411491	    -13.67822553	     16.05410266	     -6.85373404	     -3.97442056	    -58.94648881	    125.45869839	    -47.10364593	   -152.84883784	     -2.29690095	      8.63292041	     22.66066849	    -10.00241560	    -33.64342731	     -7.85584844	    -26.83629350	     10.26466357	     57.62817596	     -4.46476750	      3.67244070	     26.20824150	     11.26224972	     25.40953915	     -3.85111779
      3.42000000	     -3.53692234	      4.21649060	     10.42085049	     -0.10165811	      1.02399226	      0.00776125	     14.19663986	    -15.27867936	     33.78872668	    -13.56979864	     16.82340032	     -7.36112642	     -3.00908567	    -57.88456978	    125.95383662	    -44.47104979	   -150.28386809	     -2.07911516	      8.65100607	     23.43623054	    -10.05245729	    -34.92980193	     -7.73726613	    -26.77335524	     11.02061685	     56.96606811	     -2.81557972	      4.59945302	     23.61382494	     13.16456607	     24.13480117	     -4.76703171
      3.43000000	     -3.71114945	      4.21347225	     10.06006563	     -0.10049491	      1.02467981	      0.00771715	     14.36036850	    -15.70192600	     34.48835237	    -14.15406037	     17.54054994	     -7.31223750	     -2.29861790	    -57.13210130	    125.77554331	    -42.21485498	   -149.56407012	     -2.47244648	      8.70486655	     23.74944584	    -10.46450306	    -35.40835452	     -7.18238860	    -26.37759019	     11.24750282	     57.07675172	     -2.18072028	      4.87426767	     21.66887555	     13.73236054	     23.84324645	     -4.63494397
      3.44000000	     -3.66153530	      4.20702801	     10.01402898	     -0.09972195	      1.02453113	      0.00765267	     14.53121722	    -15.39075640	     35.36781364	    -14.14314000	     18.46426151	     -7.81083152	     -1.79622707	    -56.41650840	    126.00861935	    -39.90024905	   -146.93683025	     -2.41407494	      8.32092771	     24.31179310	    -10.54473436	    -36.33204371	     -7.04394952	    -26.29885604	     11.79251392	     56.52588715	     -0.92839783	      5.74522897	     19.59525183	     15.13741513	     22.42688254	     -5.22084090
      3.45000000	     -3.61665621	      4.27442616	      9.91797932	     -0.09916436	      1.02465929	      0.00775940	     14.94781688	    -15.13713362	     36.50939596	    -14.11340311	     19.19674430	     -8.41766340	     -1.47613061	    -55.73396872	    125.51125580	    -37.95854854	   -143.89519349	     -2.28854992	      8.17033011	     24.94071613	    -10.84462480	    -37.33531399	     -6.73398017	    -26.26055206	     12.33836459	     56.30975362	     -0.10329182	      5.95472484	     17.97518915	     16.53054289	     21.29667489	     -5.86879114
